<?xml version="1.0" encoding="UTF-8"?>
<svg width="260px" height="25px" viewBox="0 0 260 25" version="1.1" xmlns="http://www.w3.org/2000/svg" xmlns:xlink="http://www.w3.org/1999/xlink">
    <title>logo</title>
    <g id="logo" stroke="none" stroke-width="1" fill="none" fill-rule="evenodd">
        <path d="M8.85277778,19 C9.01944444,19 9.10277778,18.9166667 9.10277778,18.75 L9.10277778,18.75 L9.10277778,3.7 C9.10277778,3.63333333 9.13611111,3.6 9.20277778,3.6 L9.20277778,3.6 L14.0027778,3.6 C14.1694444,3.6 14.2527778,3.51666667 14.2527778,3.35 L14.2527778,3.35 L14.2527778,1.75 C14.2527778,1.58333333 14.1694444,1.5 14.0027778,1.5 L14.0027778,1.5 L2.02777778,1.5 C1.86111111,1.5 1.77777778,1.58333333 1.77777778,1.75 L1.77777778,1.75 L1.77777778,3.35 C1.77777778,3.51666667 1.86111111,3.6 2.02777778,3.6 L2.02777778,3.6 L6.60277778,3.6 C6.66944444,3.6 6.70277778,3.63333333 6.70277778,3.7 L6.70277778,3.7 L6.70277778,18.75 C6.70277778,18.9166667 6.78611111,19 6.95277778,19 L6.95277778,19 L8.85277778,19 Z M18.0763889,4.275 C18.5430556,4.275 18.9263889,4.125 19.2263889,3.825 C19.5263889,3.525 19.6763889,3.14166667 19.6763889,2.675 C19.6763889,2.20833333 19.5263889,1.825 19.2263889,1.525 C18.9263889,1.225 18.5430556,1.075 18.0763889,1.075 C17.6097222,1.075 17.2263889,1.225 16.9263889,1.525 C16.6263889,1.825 16.4763889,2.20833333 16.4763889,2.675 C16.4763889,3.14166667 16.6263889,3.525 16.9263889,3.825 C17.2263889,4.125 17.6097222,4.275 18.0763889,4.275 Z M18.9763889,18.975 C19.1430556,18.975 19.2263889,18.8916667 19.2263889,18.725 L19.2263889,18.725 L19.2263889,6.525 C19.2263889,6.35833333 19.1430556,6.275 18.9763889,6.275 L18.9763889,6.275 L17.0763889,6.275 C16.9097222,6.275 16.8263889,6.35833333 16.8263889,6.525 L16.8263889,6.525 L16.8263889,18.725 C16.8263889,18.8916667 16.9097222,18.975 17.0763889,18.975 L17.0763889,18.975 L18.9763889,18.975 Z M25.125,19 C25.2916667,19 25.375,18.9166667 25.375,18.75 L25.375,18.75 L25.375,10.85 C25.375,10.0333333 25.6041667,9.38333333 26.0625,8.9 C26.5208333,8.41666667 27.1333333,8.175 27.9,8.175 C28.6666667,8.175 29.2791667,8.42083333 29.7375,8.9125 C30.1958333,9.40416667 30.425,10.0666667 30.425,10.9 L30.425,10.9 L30.425,18.75 C30.425,18.9166667 30.5083333,19 30.675,19 L30.675,19 L32.55,19 C32.7166667,19 32.8,18.9166667 32.8,18.75 L32.8,18.75 L32.8,10.85 C32.8,10.0333333 33.0416667,9.38333333 33.525,8.9 C34.0083333,8.41666667 34.6333333,8.175 35.4,8.175 C36.1666667,8.175 36.7791667,8.42083333 37.2375,8.9125 C37.6958333,9.40416667 37.925,10.0666667 37.925,10.9 L37.925,10.9 L37.925,18.75 C37.925,18.9166667 38.0083333,19 38.175,19 L38.175,19 L40.05,19 C40.2166667,19 40.3,18.9166667 40.3,18.75 L40.3,18.75 L40.3,10.4 C40.3,9.05 39.9333333,7.99583333 39.2,7.2375 C38.4666667,6.47916667 37.4666667,6.1 36.2,6.1 C35.4,6.1 34.6708333,6.25833333 34.0125,6.575 C33.3541667,6.89166667 32.825,7.375 32.425,8.025 C32.375,8.09166667 32.325,8.09166667 32.275,8.025 C31.9416667,7.39166667 31.475,6.9125 30.875,6.5875 C30.275,6.2625 29.55,6.1 28.7,6.1 C27.3,6.1 26.2333333,6.54166667 25.5,7.425 C25.4666667,7.45833333 25.4375,7.46666667 25.4125,7.45 C25.3875,7.43333333 25.375,7.40833333 25.375,7.375 L25.375,7.375 L25.375,6.525 C25.375,6.35833333 25.2916667,6.275 25.125,6.275 L25.125,6.275 L23.225,6.275 C23.0583333,6.275 22.975,6.35833333 22.975,6.525 L22.975,6.525 L22.975,18.75 C22.975,18.9166667 23.0583333,19 23.225,19 L23.225,19 L25.125,19 Z M50.8722222,19 C51.0388889,19 51.1222222,18.9166667 51.1222222,18.75 L51.1222222,18.75 L51.1222222,11.65 C51.1222222,11.5833333 51.1555556,11.55 51.2222222,11.55 L51.2222222,11.55 L55.6222222,11.55 C56.6555556,11.55 57.5680556,11.3416667 58.3597222,10.925 C59.1513889,10.5083333 59.7638889,9.925 60.1972222,9.175 C60.6305556,8.425 60.8472222,7.55 60.8472222,6.55 C60.8472222,5.55 60.6347222,4.66666667 60.2097222,3.9 C59.7847222,3.13333333 59.1847222,2.5375 58.4097222,2.1125 C57.6347222,1.6875 56.7388889,1.475 55.7222222,1.475 L55.7222222,1.475 L48.9722222,1.475 C48.8055556,1.475 48.7222222,1.55833333 48.7222222,1.725 L48.7222222,1.725 L48.7222222,18.75 C48.7222222,18.9166667 48.8055556,19 48.9722222,19 L48.9722222,19 L50.8722222,19 Z M55.3972222,9.6 L51.2222222,9.6 C51.1555556,9.6 51.1222222,9.56666667 51.1222222,9.5 L51.1222222,9.5 L51.1222222,3.65 C51.1222222,3.58333333 51.1555556,3.55 51.2222222,3.55 L51.2222222,3.55 L55.3972222,3.55 C56.3138889,3.55 57.0513889,3.82916667 57.6097222,4.3875 C58.1680556,4.94583333 58.4472222,5.68333333 58.4472222,6.6 C58.4472222,7.5 58.1680556,8.225 57.6097222,8.775 C57.0513889,9.325 56.3138889,9.6 55.3972222,9.6 L55.3972222,9.6 Z M66.7458333,19.2 C67.5125,19.2 68.2083333,19.0791667 68.8333333,18.8375 C69.4583333,18.5958333 69.9875,18.25 70.4208333,17.8 C70.5041667,17.75 70.5458333,17.7666667 70.5458333,17.85 L70.5458333,17.85 L70.5458333,18.75 C70.5458333,18.9166667 70.6291667,19 70.7958333,19 L70.7958333,19 L72.6958333,19 C72.8625,19 72.9458333,18.9166667 72.9458333,18.75 L72.9458333,18.75 L72.9458333,10.3 C72.9458333,9.48333333 72.7416667,8.75416667 72.3333333,8.1125 C71.925,7.47083333 71.3416667,6.97083333 70.5833333,6.6125 C69.825,6.25416667 68.9375,6.075 67.9208333,6.075 C66.5375,6.075 65.3875,6.3875 64.4708333,7.0125 C63.5541667,7.6375 63.0291667,8.44166667 62.8958333,9.425 C62.8791667,9.525 62.9541667,9.59166667 63.1208333,9.625 L63.1208333,9.625 L65.1458333,9.9 C65.2958333,9.91666667 65.3958333,9.84166667 65.4458333,9.675 C65.5458333,9.20833333 65.8166667,8.8375 66.2583333,8.5625 C66.7,8.2875 67.2708333,8.15 67.9708333,8.15 C68.8375,8.15 69.4833333,8.35416667 69.9083333,8.7625 C70.3333333,9.17083333 70.5458333,9.74166667 70.5458333,10.475 L70.5458333,10.475 L70.5458333,11.15 C70.5458333,11.2166667 70.5125,11.25 70.4458333,11.25 L70.4458333,11.25 L67.6458333,11.25 C66.0125,11.25 64.7416667,11.6208333 63.8333333,12.3625 C62.925,13.1041667 62.4708333,14.125 62.4708333,15.425 C62.4708333,16.6916667 62.875,17.6375 63.6833333,18.2625 C64.4916667,18.8875 65.5125,19.2 66.7458333,19.2 Z M67.2708333,17.175 C66.5541667,17.175 65.975,17.0166667 65.5333333,16.7 C65.0916667,16.3833333 64.8708333,15.9166667 64.8708333,15.3 C64.8708333,14.6166667 65.1625,14.0833333 65.7458333,13.7 C66.3291667,13.3166667 67.1125,13.125 68.0958333,13.125 L68.0958333,13.125 L70.4458333,13.125 C70.5125,13.125 70.5458333,13.1583333 70.5458333,13.225 L70.5458333,13.225 L70.5458333,14.7 C70.5458333,15.4166667 70.2208333,16.0083333 69.5708333,16.475 C68.9208333,16.9416667 68.1541667,17.175 67.2708333,17.175 Z M78.3194444,19 C78.4861111,19 78.5694444,18.9166667 78.5694444,18.75 L78.5694444,18.75 L78.5694444,10.95 C78.5694444,10.1333333 78.8194444,9.46666667 79.3194444,8.95 C79.8194444,8.43333333 80.4611111,8.175 81.2444444,8.175 C82.0444444,8.175 82.6861111,8.43333333 83.1694444,8.95 C83.6527778,9.46666667 83.8944444,10.1416667 83.8944444,10.975 L83.8944444,10.975 L83.8944444,18.75 C83.8944444,18.9166667 83.9777778,19 84.1444444,19 L84.1444444,19 L86.0444444,19 C86.2111111,19 86.2944444,18.9166667 86.2944444,18.75 L86.2944444,18.75 L86.2944444,10.5 C86.2944444,9.15 85.8944444,8.07916667 85.0944444,7.2875 C84.2944444,6.49583333 83.2111111,6.1 81.8444444,6.1 C80.4444444,6.1 79.3861111,6.55833333 78.6694444,7.475 C78.6527778,7.50833333 78.6319444,7.51666667 78.6069444,7.5 C78.5819444,7.48333333 78.5694444,7.45833333 78.5694444,7.425 L78.5694444,7.425 L78.5694444,6.525 C78.5694444,6.35833333 78.4861111,6.275 78.3194444,6.275 L78.3194444,6.275 L76.4194444,6.275 C76.2527778,6.275 76.1694444,6.35833333 76.1694444,6.525 L76.1694444,6.525 L76.1694444,18.75 C76.1694444,18.9166667 76.2527778,19 76.4194444,19 L76.4194444,19 L78.3194444,19 Z M94.7430556,19.225 C95.8263889,19.225 96.7972222,19.0083333 97.6555556,18.575 C98.5138889,18.1416667 99.1763889,17.55 99.6430556,16.8 C99.7097222,16.6833333 99.6847222,16.575 99.5680556,16.475 L99.5680556,16.475 L98.1430556,15.525 C98.0097222,15.4083333 97.9013889,15.4333333 97.8180556,15.6 C97.1513889,16.6166667 96.2013889,17.125 94.9680556,17.125 C94.1180556,17.125 93.4138889,16.9375 92.8555556,16.5625 C92.2972222,16.1875 91.9263889,15.6666667 91.7430556,15 C91.6430556,14.7 91.5930556,14.2666667 91.5930556,13.7 C91.5930556,13.6333333 91.6263889,13.6 91.6930556,13.6 L91.6930556,13.6 L99.6680556,13.6 C99.8347222,13.6 99.9180556,13.5166667 99.9180556,13.35 C99.9347222,12.5 99.9097222,11.7333333 99.8430556,11.05 C99.6597222,9.41666667 99.1513889,8.17916667 98.3180556,7.3375 C97.4847222,6.49583333 96.2263889,6.075 94.5430556,6.075 C93.2597222,6.075 92.1680556,6.40833333 91.2680556,7.075 C90.3680556,7.74166667 89.7680556,8.65 89.4680556,9.8 C89.2847222,10.4333333 89.1930556,11.3583333 89.1930556,12.575 C89.1930556,13.975 89.3930556,15.1666667 89.7930556,16.15 C90.2097222,17.1333333 90.8347222,17.8916667 91.6680556,18.425 C92.5013889,18.9583333 93.5263889,19.225 94.7430556,19.225 Z M97.4180556,11.625 L91.6930556,11.625 C91.6263889,11.625 91.5930556,11.5916667 91.5930556,11.525 C91.6263889,10.9583333 91.7013889,10.4916667 91.8180556,10.125 C91.9847222,9.525 92.3013889,9.04583333 92.7680556,8.6875 C93.2347222,8.32916667 93.8263889,8.15 94.5430556,8.15 C95.2763889,8.15 95.8888889,8.34583333 96.3805556,8.7375 C96.8722222,9.12916667 97.2013889,9.65 97.3680556,10.3 C97.4347222,10.5666667 97.4847222,10.975 97.5180556,11.525 C97.5180556,11.5916667 97.4847222,11.625 97.4180556,11.625 L97.4180556,11.625 Z M105.066667,19 C105.233333,19 105.316667,18.9166667 105.316667,18.75 L105.316667,18.75 L105.316667,14.7 C105.316667,14.6833333 105.333333,14.6416667 105.366667,14.575 L105.366667,14.575 L107.716667,11.975 C107.766667,11.9083333 107.808333,11.9166667 107.841667,12 L107.841667,12 L110.816667,18.8 C110.866667,18.9333333 110.958333,19 111.091667,19 L111.091667,19 L113.091667,19 C113.241667,19 113.316667,18.9333333 113.316667,18.8 L113.316667,18.8 L113.291667,18.7 L109.466667,10.45 C109.45,10.4166667 109.458333,10.3666667 109.491667,10.3 L109.491667,10.3 L112.716667,6.575 C112.783333,6.49166667 112.804167,6.42083333 112.779167,6.3625 C112.754167,6.30416667 112.691667,6.275 112.591667,6.275 L112.591667,6.275 L110.366667,6.275 C110.233333,6.275 110.133333,6.31666667 110.066667,6.4 L110.066667,6.4 L105.441667,11.425 C105.425,11.4583333 105.4,11.4666667 105.366667,11.45 C105.333333,11.4333333 105.316667,11.4083333 105.316667,11.375 L105.316667,11.375 L105.316667,1.75 C105.316667,1.58333333 105.233333,1.5 105.066667,1.5 L105.066667,1.5 L103.166667,1.5 C103,1.5 102.916667,1.58333333 102.916667,1.75 L102.916667,1.75 L102.916667,18.75 C102.916667,18.9166667 103,19 103.166667,19 L103.166667,19 L105.066667,19 Z M116.790278,21.15 C116.940278,21.15 117.031944,21.075 117.065278,20.925 L117.065278,20.925 L118.540278,15.375 C118.556944,15.2916667 118.544444,15.225 118.502778,15.175 C118.461111,15.125 118.398611,15.1 118.315278,15.1 L118.315278,15.1 L116.665278,15.1 C116.515278,15.1 116.423611,15.175 116.390278,15.325 L116.390278,15.325 L115.390278,20.875 C115.373611,20.9583333 115.386111,21.025 115.427778,21.075 C115.469444,21.125 115.531944,21.15 115.615278,21.15 L115.615278,21.15 L116.790278,21.15 Z M133.5125,19.2 C134.729167,19.2 135.8,18.9625 136.725,18.4875 C137.65,18.0125 138.366667,17.3375 138.875,16.4625 C139.383333,15.5875 139.6375,14.5833333 139.6375,13.45 L139.6375,13.45 L139.6375,1.75 C139.6375,1.58333333 139.554167,1.5 139.3875,1.5 L139.3875,1.5 L137.4875,1.5 C137.320833,1.5 137.2375,1.58333333 137.2375,1.75 L137.2375,1.75 L137.2375,13.5 C137.2375,14.5833333 136.895833,15.4583333 136.2125,16.125 C135.529167,16.7916667 134.629167,17.125 133.5125,17.125 C132.395833,17.125 131.491667,16.7916667 130.8,16.125 C130.108333,15.4583333 129.7625,14.5833333 129.7625,13.5 L129.7625,13.5 L129.7625,1.75 C129.7625,1.58333333 129.679167,1.5 129.5125,1.5 L129.5125,1.5 L127.6125,1.5 C127.445833,1.5 127.3625,1.58333333 127.3625,1.75 L127.3625,1.75 L127.3625,13.45 C127.3625,14.5833333 127.620833,15.5875 128.1375,16.4625 C128.654167,17.3375 129.375,18.0125 130.3,18.4875 C131.225,18.9625 132.295833,19.2 133.5125,19.2 Z M144.636111,19 C144.752778,19 144.852778,18.9416667 144.936111,18.825 L144.936111,18.825 L148.961111,12.225 C148.977778,12.1916667 149.002778,12.175 149.036111,12.175 C149.069444,12.175 149.094444,12.1916667 149.111111,12.225 L149.111111,12.225 L153.136111,18.825 C153.219444,18.9416667 153.319444,19 153.436111,19 L153.436111,19 L155.486111,19 C155.636111,19 155.711111,18.95 155.711111,18.85 C155.711111,18.8166667 155.694444,18.7666667 155.661111,18.7 L155.661111,18.7 L150.536111,10.35 C150.519444,10.3 150.519444,10.25 150.536111,10.2 L150.536111,10.2 L155.661111,1.8 C155.711111,1.71666667 155.719444,1.64583333 155.686111,1.5875 C155.652778,1.52916667 155.586111,1.5 155.486111,1.5 L155.486111,1.5 L153.436111,1.5 C153.319444,1.5 153.219444,1.55833333 153.136111,1.675 L153.136111,1.675 L149.111111,8.3 C149.094444,8.31666667 149.069444,8.325 149.036111,8.325 C149.002778,8.325 148.977778,8.31666667 148.961111,8.3 L148.961111,8.3 L144.936111,1.675 C144.852778,1.55833333 144.752778,1.5 144.636111,1.5 L144.636111,1.5 L142.561111,1.5 C142.411111,1.5 142.336111,1.55 142.336111,1.65 C142.336111,1.68333333 142.352778,1.73333333 142.386111,1.8 L142.386111,1.8 L147.536111,10.175 C147.569444,10.225 147.569444,10.275 147.536111,10.325 L147.536111,10.325 L142.386111,18.7 C142.336111,18.7833333 142.327778,18.8541667 142.361111,18.9125 C142.394444,18.9708333 142.461111,19 142.561111,19 L142.561111,19 L144.636111,19 Z M169.883333,19 C171.616667,19 173,18.5458333 174.033333,17.6375 C175.066667,16.7291667 175.583333,15.5166667 175.583333,14 L175.583333,14 L175.583333,6.5 C175.583333,4.98333333 175.066667,3.77083333 174.033333,2.8625 C173,1.95416667 171.616667,1.5 169.883333,1.5 L169.883333,1.5 L163.833333,1.5 C163.666667,1.5 163.583333,1.58333333 163.583333,1.75 L163.583333,1.75 L163.583333,18.75 C163.583333,18.9166667 163.666667,19 163.833333,19 L163.833333,19 L169.883333,19 Z M169.983333,16.925 L166.083333,16.925 C166.016667,16.925 165.983333,16.8916667 165.983333,16.825 L165.983333,16.825 L165.983333,3.675 C165.983333,3.60833333 166.016667,3.575 166.083333,3.575 L166.083333,3.575 L169.983333,3.575 C170.966667,3.575 171.745833,3.87083333 172.320833,4.4625 C172.895833,5.05416667 173.183333,5.85 173.183333,6.85 L173.183333,6.85 L173.183333,13.65 C173.166667,14.65 172.870833,15.4458333 172.295833,16.0375 C171.720833,16.6291667 170.95,16.925 169.983333,16.925 L169.983333,16.925 Z M183.906944,19.225 C184.990278,19.225 185.961111,19.0083333 186.819444,18.575 C187.677778,18.1416667 188.340278,17.55 188.806944,16.8 C188.873611,16.6833333 188.848611,16.575 188.731944,16.475 L188.731944,16.475 L187.306944,15.525 C187.173611,15.4083333 187.065278,15.4333333 186.981944,15.6 C186.315278,16.6166667 185.365278,17.125 184.131944,17.125 C183.281944,17.125 182.577778,16.9375 182.019444,16.5625 C181.461111,16.1875 181.090278,15.6666667 180.906944,15 C180.806944,14.7 180.756944,14.2666667 180.756944,13.7 C180.756944,13.6333333 180.790278,13.6 180.856944,13.6 L180.856944,13.6 L188.831944,13.6 C188.998611,13.6 189.081944,13.5166667 189.081944,13.35 C189.098611,12.5 189.073611,11.7333333 189.006944,11.05 C188.823611,9.41666667 188.315278,8.17916667 187.481944,7.3375 C186.648611,6.49583333 185.390278,6.075 183.706944,6.075 C182.423611,6.075 181.331944,6.40833333 180.431944,7.075 C179.531944,7.74166667 178.931944,8.65 178.631944,9.8 C178.448611,10.4333333 178.356944,11.3583333 178.356944,12.575 C178.356944,13.975 178.556944,15.1666667 178.956944,16.15 C179.373611,17.1333333 179.998611,17.8916667 180.831944,18.425 C181.665278,18.9583333 182.690278,19.225 183.906944,19.225 Z M186.581944,11.625 L180.856944,11.625 C180.790278,11.625 180.756944,11.5916667 180.756944,11.525 C180.790278,10.9583333 180.865278,10.4916667 180.981944,10.125 C181.148611,9.525 181.465278,9.04583333 181.931944,8.6875 C182.398611,8.32916667 182.990278,8.15 183.706944,8.15 C184.440278,8.15 185.052778,8.34583333 185.544444,8.7375 C186.036111,9.12916667 186.365278,9.65 186.531944,10.3 C186.598611,10.5666667 186.648611,10.975 186.681944,11.525 C186.681944,11.5916667 186.648611,11.625 186.581944,11.625 L186.581944,11.625 Z M196.355556,19.15 C197.838889,19.15 199.026389,18.8166667 199.918056,18.15 C200.809722,17.4833333 201.255556,16.5833333 201.255556,15.45 C201.255556,14.6333333 201.030556,13.9708333 200.580556,13.4625 C200.130556,12.9541667 199.584722,12.5708333 198.943056,12.3125 C198.301389,12.0541667 197.497222,11.7916667 196.530556,11.525 C195.547222,11.2416667 194.834722,10.975 194.393056,10.725 C193.951389,10.475 193.730556,10.1083333 193.730556,9.625 C193.730556,9.14166667 193.959722,8.75833333 194.418056,8.475 C194.876389,8.19166667 195.472222,8.05 196.205556,8.05 C197.022222,8.05 197.668056,8.2125 198.143056,8.5375 C198.618056,8.8625 198.855556,9.26666667 198.855556,9.75 L198.855556,9.75 L198.855556,9.825 C198.855556,9.99166667 198.938889,10.075 199.105556,10.075 L199.105556,10.075 L200.855556,10.075 C201.022222,10.075 201.105556,9.99166667 201.105556,9.825 L201.105556,9.825 L201.105556,9.75 C201.105556,9.06666667 200.905556,8.45 200.505556,7.9 C200.105556,7.35 199.534722,6.92083333 198.793056,6.6125 C198.051389,6.30416667 197.197222,6.15 196.230556,6.15 C194.780556,6.15 193.618056,6.47916667 192.743056,7.1375 C191.868056,7.79583333 191.430556,8.68333333 191.430556,9.8 C191.430556,10.6 191.651389,11.2541667 192.093056,11.7625 C192.534722,12.2708333 193.076389,12.6625 193.718056,12.9375 C194.359722,13.2125 195.155556,13.4833333 196.105556,13.75 C197.072222,14.0166667 197.772222,14.2708333 198.205556,14.5125 C198.638889,14.7541667 198.855556,15.1166667 198.855556,15.6 C198.855556,16.1 198.622222,16.5125 198.155556,16.8375 C197.688889,17.1625 197.080556,17.325 196.330556,17.325 C195.547222,17.325 194.901389,17.15 194.393056,16.8 C193.884722,16.45 193.630556,16.0416667 193.630556,15.575 L193.630556,15.575 L193.630556,15.45 C193.630556,15.2833333 193.547222,15.2 193.380556,15.2 L193.380556,15.2 L191.580556,15.2 C191.413889,15.2 191.330556,15.2833333 191.330556,15.45 L191.330556,15.45 L191.330556,15.725 C191.330556,16.3583333 191.538889,16.9375 191.955556,17.4625 C192.372222,17.9875 192.959722,18.4 193.718056,18.7 C194.476389,19 195.355556,19.15 196.355556,19.15 Z M205.479167,4.275 C205.945833,4.275 206.329167,4.125 206.629167,3.825 C206.929167,3.525 207.079167,3.14166667 207.079167,2.675 C207.079167,2.20833333 206.929167,1.825 206.629167,1.525 C206.329167,1.225 205.945833,1.075 205.479167,1.075 C205.0125,1.075 204.629167,1.225 204.329167,1.525 C204.029167,1.825 203.879167,2.20833333 203.879167,2.675 C203.879167,3.14166667 204.029167,3.525 204.329167,3.825 C204.629167,4.125 205.0125,4.275 205.479167,4.275 Z M206.379167,18.975 C206.545833,18.975 206.629167,18.8916667 206.629167,18.725 L206.629167,18.725 L206.629167,6.525 C206.629167,6.35833333 206.545833,6.275 206.379167,6.275 L206.379167,6.275 L204.479167,6.275 C204.3125,6.275 204.229167,6.35833333 204.229167,6.525 L204.229167,6.525 L204.229167,18.725 C204.229167,18.8916667 204.3125,18.975 204.479167,18.975 L204.479167,18.975 L206.379167,18.975 Z M214.302778,23.975 C216.219444,23.975 217.748611,23.5416667 218.890278,22.675 C220.031944,21.8083333 220.602778,20.3666667 220.602778,18.35 L220.602778,18.35 L220.602778,6.525 C220.602778,6.35833333 220.519444,6.275 220.352778,6.275 L220.352778,6.275 L218.452778,6.275 C218.286111,6.275 218.202778,6.35833333 218.202778,6.525 L218.202778,6.525 L218.202778,7.3 C218.202778,7.33333333 218.190278,7.35416667 218.165278,7.3625 C218.140278,7.37083333 218.111111,7.35833333 218.077778,7.325 C217.294444,6.49166667 216.219444,6.075 214.852778,6.075 C213.752778,6.075 212.798611,6.37916667 211.990278,6.9875 C211.181944,7.59583333 210.619444,8.4 210.302778,9.4 C210.052778,10.15 209.927778,11.2166667 209.927778,12.6 C209.927778,13.9 210.036111,14.9166667 210.252778,15.65 C210.586111,16.75 211.190278,17.5833333 212.065278,18.15 C212.940278,18.7166667 213.919444,19 215.002778,19 C216.352778,19 217.377778,18.5916667 218.077778,17.775 C218.111111,17.7416667 218.140278,17.7333333 218.165278,17.75 C218.190278,17.7666667 218.202778,17.7916667 218.202778,17.825 L218.202778,17.825 L218.202778,18.275 C218.202778,19.525 217.886111,20.4125 217.252778,20.9375 C216.619444,21.4625 215.594444,21.725 214.177778,21.725 C213.727778,21.725 213.386111,21.7166667 213.152778,21.7 C213.069444,21.6833333 213.002778,21.7 212.952778,21.75 C212.902778,21.8 212.877778,21.8583333 212.877778,21.925 L212.877778,21.925 L212.802778,23.65 C212.802778,23.8166667 212.886111,23.9083333 213.052778,23.925 C213.619444,23.9583333 214.036111,23.975 214.302778,23.975 Z M215.377778,17.025 C214.677778,17.025 214.081944,16.8291667 213.590278,16.4375 C213.098611,16.0458333 212.769444,15.5416667 212.602778,14.925 C212.436111,14.5083333 212.352778,13.725 212.352778,12.575 C212.352778,11.525 212.444444,10.75 212.627778,10.25 C212.827778,9.63333333 213.161111,9.12916667 213.627778,8.7375 C214.094444,8.34583333 214.677778,8.15 215.377778,8.15 C216.077778,8.15 216.661111,8.34583333 217.127778,8.7375 C217.594444,9.12916667 217.894444,9.63333333 218.027778,10.25 C218.094444,10.5166667 218.140278,10.7958333 218.165278,11.0875 C218.190278,11.3791667 218.202778,11.875 218.202778,12.575 L218.202315,12.8009259 C218.199846,13.383642 218.1875,13.8083333 218.165278,14.075 C218.140278,14.375 218.102778,14.6583333 218.052778,14.925 C217.919444,15.5416667 217.623611,16.0458333 217.165278,16.4375 C216.706944,16.8291667 216.111111,17.025 215.377778,17.025 Z M226.076389,19 C226.243056,19 226.326389,18.9166667 226.326389,18.75 L226.326389,18.75 L226.326389,10.95 C226.326389,10.1333333 226.576389,9.46666667 227.076389,8.95 C227.576389,8.43333333 228.218056,8.175 229.001389,8.175 C229.801389,8.175 230.443056,8.43333333 230.926389,8.95 C231.409722,9.46666667 231.651389,10.1416667 231.651389,10.975 L231.651389,10.975 L231.651389,18.75 C231.651389,18.9166667 231.734722,19 231.901389,19 L231.901389,19 L233.801389,19 C233.968056,19 234.051389,18.9166667 234.051389,18.75 L234.051389,18.75 L234.051389,10.5 C234.051389,9.15 233.651389,8.07916667 232.851389,7.2875 C232.051389,6.49583333 230.968056,6.1 229.601389,6.1 C228.201389,6.1 227.143056,6.55833333 226.426389,7.475 C226.409722,7.50833333 226.388889,7.51666667 226.363889,7.5 C226.338889,7.48333333 226.326389,7.45833333 226.326389,7.425 L226.326389,7.425 L226.326389,6.525 C226.326389,6.35833333 226.243056,6.275 226.076389,6.275 L226.076389,6.275 L224.176389,6.275 C224.009722,6.275 223.926389,6.35833333 223.926389,6.525 L223.926389,6.525 L223.926389,18.75 C223.926389,18.9166667 224.009722,19 224.176389,19 L224.176389,19 L226.076389,19 Z M242.5,19.225 C243.583333,19.225 244.554167,19.0083333 245.4125,18.575 C246.270833,18.1416667 246.933333,17.55 247.4,16.8 C247.466667,16.6833333 247.441667,16.575 247.325,16.475 L247.325,16.475 L245.9,15.525 C245.766667,15.4083333 245.658333,15.4333333 245.575,15.6 C244.908333,16.6166667 243.958333,17.125 242.725,17.125 C241.875,17.125 241.170833,16.9375 240.6125,16.5625 C240.054167,16.1875 239.683333,15.6666667 239.5,15 C239.4,14.7 239.35,14.2666667 239.35,13.7 C239.35,13.6333333 239.383333,13.6 239.45,13.6 L239.45,13.6 L247.425,13.6 C247.591667,13.6 247.675,13.5166667 247.675,13.35 C247.691667,12.5 247.666667,11.7333333 247.6,11.05 C247.416667,9.41666667 246.908333,8.17916667 246.075,7.3375 C245.241667,6.49583333 243.983333,6.075 242.3,6.075 C241.016667,6.075 239.925,6.40833333 239.025,7.075 C238.125,7.74166667 237.525,8.65 237.225,9.8 C237.041667,10.4333333 236.95,11.3583333 236.95,12.575 C236.95,13.975 237.15,15.1666667 237.55,16.15 C237.966667,17.1333333 238.591667,17.8916667 239.425,18.425 C240.258333,18.9583333 241.283333,19.225 242.5,19.225 Z M245.175,11.625 L239.45,11.625 C239.383333,11.625 239.35,11.5916667 239.35,11.525 C239.383333,10.9583333 239.458333,10.4916667 239.575,10.125 C239.741667,9.525 240.058333,9.04583333 240.525,8.6875 C240.991667,8.32916667 241.583333,8.15 242.3,8.15 C243.033333,8.15 243.645833,8.34583333 244.1375,8.7375 C244.629167,9.12916667 244.958333,9.65 245.125,10.3 C245.191667,10.5666667 245.241667,10.975 245.275,11.525 C245.275,11.5916667 245.241667,11.625 245.175,11.625 L245.175,11.625 Z M252.823611,19 C252.990278,19 253.073611,18.9166667 253.073611,18.75 L253.073611,18.75 L253.073611,11.45 C253.073611,10.6333333 253.327778,9.97083333 253.836111,9.4625 C254.344444,8.95416667 254.990278,8.68333333 255.773611,8.65 L255.773611,8.65 L256.123611,8.625 C256.506944,8.625 256.840278,8.68333333 257.123611,8.8 C257.306944,8.85 257.406944,8.8 257.423611,8.65 L257.423611,8.65 L257.823611,6.775 C257.856944,6.625 257.815278,6.525 257.698611,6.475 C257.265278,6.25833333 256.781944,6.15 256.248611,6.15 C254.948611,6.15 253.923611,6.73333333 253.173611,7.9 C253.156944,7.93333333 253.136111,7.94583333 253.111111,7.9375 C253.086111,7.92916667 253.073611,7.9 253.073611,7.85 L253.073611,7.85 L253.073611,6.525 C253.073611,6.35833333 252.990278,6.275 252.823611,6.275 L252.823611,6.275 L250.923611,6.275 C250.756944,6.275 250.673611,6.35833333 250.673611,6.525 L250.673611,6.525 L250.673611,18.75 C250.673611,18.9166667 250.756944,19 250.923611,19 L250.923611,19 L252.823611,19 Z" id="TimPanek,UXDesigner" fill="#033F6D" fill-rule="nonzero"></path>
    </g>
</svg>