<?xml version="1.0" encoding="UTF-8"?>
<svg width="277px" height="33px" viewBox="0 0 277 33" version="1.1" xmlns="http://www.w3.org/2000/svg" xmlns:xlink="http://www.w3.org/1999/xlink">
    <title>Tim_Panek_UX_Designer</title>
    <g id="Tim_Panek_UX_Designer" stroke="none" stroke-width="1" fill="none" fill-rule="evenodd">
        <path d="M7.31066667,25 L7.31066667,10.048 L11.8706667,10.048 L11.8706667,8.272 L0.542666667,8.272 L0.542666667,10.048 L5.12666667,10.048 L5.12666667,25 L7.31066667,25 Z M15.6613333,9.712 C16.0613333,9.712 16.4013333,9.568 16.6813333,9.28 C16.9613333,8.992 17.1013333,8.64 17.1013333,8.224 C17.1013333,7.808 16.9613333,7.456 16.6813333,7.168 C16.4013333,6.88 16.0613333,6.736 15.6613333,6.736 C15.2453333,6.736 14.8933333,6.88 14.6053333,7.168 C14.3173333,7.456 14.1733333,7.808 14.1733333,8.224 C14.1733333,8.64 14.3173333,8.992 14.6053333,9.28 C14.8933333,9.568 15.2453333,9.712 15.6613333,9.712 Z M16.7173333,25 L16.7173333,11.848 L14.5333333,11.848 L14.5333333,25 L16.7173333,25 Z M22.596,25 L22.596,17.752 C22.596,16.376 22.932,15.324 23.604,14.596 C24.276,13.868 25.18,13.504 26.316,13.504 C27.42,13.504 28.296,13.852 28.944,14.548 C29.592,15.244 29.916,16.248 29.916,17.56 L29.916,17.56 L29.916,25 L32.076,25 L32.076,17.752 C32.076,16.376 32.412,15.324 33.084,14.596 C33.756,13.868 34.66,13.504 35.796,13.504 C36.9,13.504 37.776,13.852 38.424,14.548 C39.072,15.244 39.396,16.248 39.396,17.56 L39.396,17.56 L39.396,25 L41.556,25 L41.556,17.248 C41.556,16.032 41.324,15 40.86,14.152 C40.396,13.304 39.764,12.668 38.964,12.244 C38.164,11.82 37.252,11.608 36.228,11.608 C35.188,11.608 34.244,11.864 33.396,12.376 C32.548,12.888 31.94,13.608 31.572,14.536 C31.156,13.576 30.524,12.848 29.676,12.352 C28.828,11.856 27.852,11.608 26.748,11.608 C25.868,11.608 25.064,11.792 24.336,12.16 C23.608,12.528 23.028,13.056 22.596,13.744 L22.596,13.744 L22.596,11.848 L20.412,11.848 L20.412,25 L22.596,25 Z M53.6733333,25 L53.6733333,18.016 L56.8893333,18.016 C58.8413333,18.016 60.2933333,17.556 61.2453333,16.636 C62.1973333,15.716 62.6733333,14.56 62.6733333,13.168 C62.6733333,11.728 62.1813333,10.552 61.1973333,9.64 C60.2133333,8.728 58.7773333,8.272 56.8893333,8.272 L56.8893333,8.272 L51.4893333,8.272 L51.4893333,25 L53.6733333,25 Z M56.8893333,16.216 L53.6733333,16.216 L53.6733333,10.072 L56.8893333,10.072 C59.2573333,10.072 60.4413333,11.104 60.4413333,13.168 C60.4413333,14.144 60.1533333,14.896 59.5773333,15.424 C59.0013333,15.952 58.1053333,16.216 56.8893333,16.216 L56.8893333,16.216 Z M70.76,25.216 C71.896,25.216 72.892,24.964 73.748,24.46 C74.604,23.956 75.248,23.32 75.68,22.552 L75.68,22.552 L75.68,25 L77.888,25 L77.888,11.848 L75.68,11.848 L75.68,14.248 C75.264,13.496 74.632,12.872 73.784,12.376 C72.936,11.88 71.936,11.632 70.784,11.632 C69.616,11.632 68.556,11.912 67.604,12.472 C66.652,13.032 65.904,13.82 65.36,14.836 C64.816,15.852 64.544,17.032 64.544,18.376 C64.544,19.704 64.816,20.888 65.36,21.928 C65.904,22.968 66.648,23.776 67.592,24.352 C68.536,24.928 69.592,25.216 70.76,25.216 Z M71.216,23.296 C70.4,23.296 69.656,23.1 68.984,22.708 C68.312,22.316 67.776,21.748 67.376,21.004 C66.976,20.26 66.776,19.384 66.776,18.376 C66.776,17.384 66.976,16.52 67.376,15.784 C67.776,15.048 68.312,14.488 68.984,14.104 C69.656,13.72 70.4,13.528 71.216,13.528 C72.032,13.528 72.78,13.724 73.46,14.116 C74.14,14.508 74.68,15.072 75.08,15.808 C75.48,16.544 75.68,17.408 75.68,18.4 C75.68,19.392 75.48,20.26 75.08,21.004 C74.68,21.748 74.14,22.316 73.46,22.708 C72.78,23.1 72.032,23.296 71.216,23.296 Z M83.7426667,25 L83.7426667,17.728 C83.7426667,16.352 84.0826667,15.304 84.7626667,14.584 C85.4426667,13.864 86.3586667,13.504 87.5106667,13.504 C88.6466667,13.504 89.5426667,13.852 90.1986667,14.548 C90.8546667,15.244 91.1826667,16.248 91.1826667,17.56 L91.1826667,17.56 L91.1826667,25 L93.3426667,25 L93.3426667,17.248 C93.3426667,15.424 92.8466667,14.028 91.8546667,13.06 C90.8626667,12.092 89.5666667,11.608 87.9666667,11.608 C87.0706667,11.608 86.2506667,11.792 85.5066667,12.16 C84.7626667,12.528 84.1746667,13.048 83.7426667,13.72 L83.7426667,13.72 L83.7426667,11.848 L81.5586667,11.848 L81.5586667,25 L83.7426667,25 Z M102.581333,25.216 C104.149333,25.216 105.461333,24.82 106.517333,24.028 C107.573333,23.236 108.277333,22.208 108.629333,20.944 L108.629333,20.944 L106.277333,20.944 C106.021333,21.68 105.577333,22.268 104.945333,22.708 C104.313333,23.148 103.525333,23.368 102.581333,23.368 C101.429333,23.368 100.449333,23.004 99.6413333,22.276 C98.8333333,21.548 98.3893333,20.536 98.3093333,19.24 L98.3093333,19.24 L108.821333,19.24 C108.869333,18.776 108.893333,18.336 108.893333,17.92 C108.893333,16.72 108.633333,15.644 108.113333,14.692 C107.593333,13.74 106.853333,12.992 105.893333,12.448 C104.933333,11.904 103.829333,11.632 102.581333,11.632 C101.301333,11.632 100.169333,11.908 99.1853333,12.46 C98.2013333,13.012 97.4373333,13.8 96.8933333,14.824 C96.3493333,15.848 96.0773333,17.04 96.0773333,18.4 C96.0773333,19.76 96.3573333,20.956 96.9173333,21.988 C97.4773333,23.02 98.2493333,23.816 99.2333333,24.376 C100.217333,24.936 101.333333,25.216 102.581333,25.216 Z M106.637333,17.464 L98.3333333,17.464 C98.4453333,16.216 98.8893333,15.24 99.6653333,14.536 C100.441333,13.832 101.381333,13.48 102.485333,13.48 C103.253333,13.48 103.953333,13.636 104.585333,13.948 C105.217333,14.26 105.717333,14.716 106.085333,15.316 C106.453333,15.916 106.637333,16.632 106.637333,17.464 L106.637333,17.464 Z M113.932,25 L113.932,19.192 L119.092,25 L122.068,25 L115.852,18.4 L122.044,11.848 L118.996,11.848 L113.932,17.68 L113.932,7.24 L111.748,7.24 L111.748,25 L113.932,25 Z M123.650667,28.432 L126.338667,21.976 L123.938667,21.976 L122.186667,28.432 L123.650667,28.432 Z M141.432,25.168 C142.616,25.168 143.684,24.936 144.636,24.472 C145.588,24.008 146.344,23.3 146.904,22.348 C147.464,21.396 147.744,20.224 147.744,18.832 L147.744,18.832 L147.744,8.272 L145.56,8.272 L145.56,18.856 C145.56,20.344 145.196,21.448 144.468,22.168 C143.74,22.888 142.736,23.248 141.456,23.248 C140.16,23.248 139.148,22.888 138.42,22.168 C137.692,21.448 137.328,20.344 137.328,18.856 L137.328,18.856 L137.328,8.272 L135.144,8.272 L135.144,18.832 C135.144,20.224 135.42,21.396 135.972,22.348 C136.524,23.3 137.276,24.008 138.228,24.472 C139.18,24.936 140.248,25.168 141.432,25.168 Z M153.046667,25 L156.862667,18.472 L160.870667,25 L163.342667,25 L158.206667,16.648 L163.366667,8.272 L160.918667,8.272 L157.078667,14.824 L153.046667,8.272 L150.598667,8.272 L155.734667,16.648 L150.622667,25 L153.046667,25 Z M177.836,25 C179.66,25 181.24,24.668 182.576,24.004 C183.912,23.34 184.936,22.38 185.648,21.124 C186.36,19.868 186.716,18.384 186.716,16.672 C186.716,14.96 186.36,13.472 185.648,12.208 C184.936,10.944 183.912,9.972 182.576,9.292 C181.24,8.612 179.66,8.272 177.836,8.272 L177.836,8.272 L172.628,8.272 L172.628,25 L177.836,25 Z M177.836,23.2 L174.812,23.2 L174.812,10.048 L177.836,10.048 C179.98,10.048 181.624,10.632 182.768,11.8 C183.912,12.968 184.484,14.592 184.484,16.672 C184.484,18.736 183.916,20.34 182.78,21.484 C181.644,22.628 179.996,23.2 177.836,23.2 L177.836,23.2 Z M195.258667,25.216 C196.826667,25.216 198.138667,24.82 199.194667,24.028 C200.250667,23.236 200.954667,22.208 201.306667,20.944 L201.306667,20.944 L198.954667,20.944 C198.698667,21.68 198.254667,22.268 197.622667,22.708 C196.990667,23.148 196.202667,23.368 195.258667,23.368 C194.106667,23.368 193.126667,23.004 192.318667,22.276 C191.510667,21.548 191.066667,20.536 190.986667,19.24 L190.986667,19.24 L201.498667,19.24 C201.546667,18.776 201.570667,18.336 201.570667,17.92 C201.570667,16.72 201.310667,15.644 200.790667,14.692 C200.270667,13.74 199.530667,12.992 198.570667,12.448 C197.610667,11.904 196.506667,11.632 195.258667,11.632 C193.978667,11.632 192.846667,11.908 191.862667,12.46 C190.878667,13.012 190.114667,13.8 189.570667,14.824 C189.026667,15.848 188.754667,17.04 188.754667,18.4 C188.754667,19.76 189.034667,20.956 189.594667,21.988 C190.154667,23.02 190.926667,23.816 191.910667,24.376 C192.894667,24.936 194.010667,25.216 195.258667,25.216 Z M199.314667,17.464 L191.010667,17.464 C191.122667,16.216 191.566667,15.24 192.342667,14.536 C193.118667,13.832 194.058667,13.48 195.162667,13.48 C195.930667,13.48 196.630667,13.636 197.262667,13.948 C197.894667,14.26 198.394667,14.716 198.762667,15.316 C199.130667,15.916 199.314667,16.632 199.314667,17.464 L199.314667,17.464 Z M209.081333,25.216 C210.025333,25.216 210.861333,25.052 211.589333,24.724 C212.317333,24.396 212.881333,23.944 213.281333,23.368 C213.681333,22.792 213.881333,22.144 213.881333,21.424 C213.865333,20.624 213.645333,19.976 213.221333,19.48 C212.797333,18.984 212.289333,18.612 211.697333,18.364 C211.105333,18.116 210.337333,17.864 209.393333,17.608 C208.641333,17.4 208.053333,17.212 207.629333,17.044 C207.205333,16.876 206.853333,16.652 206.573333,16.372 C206.293333,16.092 206.153333,15.736 206.153333,15.304 C206.153333,14.76 206.385333,14.32 206.849333,13.984 C207.313333,13.648 207.937333,13.48 208.721333,13.48 C209.569333,13.48 210.245333,13.688 210.749333,14.104 C211.253333,14.52 211.529333,15.072 211.577333,15.76 L211.577333,15.76 L213.761333,15.76 C213.697333,14.48 213.217333,13.472 212.321333,12.736 C211.425333,12 210.249333,11.632 208.793333,11.632 C207.849333,11.632 207.009333,11.796 206.273333,12.124 C205.537333,12.452 204.969333,12.896 204.569333,13.456 C204.169333,14.016 203.969333,14.632 203.969333,15.304 C203.969333,16.152 204.189333,16.836 204.629333,17.356 C205.069333,17.876 205.597333,18.268 206.213333,18.532 C206.829333,18.796 207.625333,19.056 208.601333,19.312 C209.673333,19.584 210.465333,19.86 210.977333,20.14 C211.489333,20.42 211.745333,20.848 211.745333,21.424 C211.745333,21.984 211.505333,22.448 211.025333,22.816 C210.545333,23.184 209.889333,23.368 209.057333,23.368 C208.161333,23.368 207.437333,23.16 206.885333,22.744 C206.333333,22.328 206.025333,21.792 205.961333,21.136 L205.961333,21.136 L203.705333,21.136 C203.753333,21.936 204.009333,22.644 204.473333,23.26 C204.937333,23.876 205.569333,24.356 206.369333,24.7 C207.169333,25.044 208.073333,25.216 209.081333,25.216 Z M218.056,9.712 C218.456,9.712 218.796,9.568 219.076,9.28 C219.356,8.992 219.496,8.64 219.496,8.224 C219.496,7.808 219.356,7.456 219.076,7.168 C218.796,6.88 218.456,6.736 218.056,6.736 C217.64,6.736 217.288,6.88 217,7.168 C216.712,7.456 216.568,7.808 216.568,8.224 C216.568,8.64 216.712,8.992 217,9.28 C217.288,9.568 217.64,9.712 218.056,9.712 Z M219.112,25 L219.112,11.848 L216.928,11.848 L216.928,25 L219.112,25 Z M229.046667,31.48 C230.310667,31.48 231.418667,31.216 232.370667,30.688 C233.322667,30.16 234.054667,29.428 234.566667,28.492 C235.078667,27.556 235.334667,26.488 235.334667,25.288 L235.334667,25.288 L235.334667,11.848 L233.126667,11.848 L233.126667,14.248 C232.710667,13.496 232.074667,12.872 231.218667,12.376 C230.362667,11.88 229.366667,11.632 228.230667,11.632 C227.062667,11.632 226.002667,11.912 225.050667,12.472 C224.098667,13.032 223.350667,13.82 222.806667,14.836 C222.262667,15.852 221.990667,17.032 221.990667,18.376 C221.990667,19.704 222.262667,20.888 222.806667,21.928 C223.350667,22.968 224.098667,23.776 225.050667,24.352 C226.002667,24.928 227.062667,25.216 228.230667,25.216 C229.366667,25.216 230.358667,24.96 231.206667,24.448 C232.054667,23.936 232.694667,23.296 233.126667,22.528 L233.126667,22.528 L233.126667,25.288 C233.126667,26.648 232.746667,27.704 231.986667,28.456 C231.226667,29.208 230.246667,29.584 229.046667,29.584 C227.990667,29.584 227.086667,29.34 226.334667,28.852 C225.582667,28.364 225.086667,27.72 224.846667,26.92 L224.846667,26.92 L222.686667,26.92 C222.894667,28.328 223.574667,29.44 224.726667,30.256 C225.878667,31.072 227.318667,31.48 229.046667,31.48 Z M228.662667,23.296 C227.846667,23.296 227.102667,23.1 226.430667,22.708 C225.758667,22.316 225.222667,21.748 224.822667,21.004 C224.422667,20.26 224.222667,19.384 224.222667,18.376 C224.222667,17.384 224.422667,16.52 224.822667,15.784 C225.222667,15.048 225.758667,14.488 226.430667,14.104 C227.102667,13.72 227.846667,13.528 228.662667,13.528 C229.478667,13.528 230.226667,13.724 230.906667,14.116 C231.586667,14.508 232.126667,15.072 232.526667,15.808 C232.926667,16.544 233.126667,17.408 233.126667,18.4 C233.126667,19.392 232.926667,20.26 232.526667,21.004 C232.126667,21.748 231.586667,22.316 230.906667,22.708 C230.226667,23.1 229.478667,23.296 228.662667,23.296 Z M241.189333,25 L241.189333,17.728 C241.189333,16.352 241.529333,15.304 242.209333,14.584 C242.889333,13.864 243.805333,13.504 244.957333,13.504 C246.093333,13.504 246.989333,13.852 247.645333,14.548 C248.301333,15.244 248.629333,16.248 248.629333,17.56 L248.629333,17.56 L248.629333,25 L250.789333,25 L250.789333,17.248 C250.789333,15.424 250.293333,14.028 249.301333,13.06 C248.309333,12.092 247.013333,11.608 245.413333,11.608 C244.517333,11.608 243.697333,11.792 242.953333,12.16 C242.209333,12.528 241.621333,13.048 241.189333,13.72 L241.189333,13.72 L241.189333,11.848 L239.005333,11.848 L239.005333,25 L241.189333,25 Z M260.028,25.216 C261.596,25.216 262.908,24.82 263.964,24.028 C265.02,23.236 265.724,22.208 266.076,20.944 L266.076,20.944 L263.724,20.944 C263.468,21.68 263.024,22.268 262.392,22.708 C261.76,23.148 260.972,23.368 260.028,23.368 C258.876,23.368 257.896,23.004 257.088,22.276 C256.28,21.548 255.836,20.536 255.756,19.24 L255.756,19.24 L266.268,19.24 C266.316,18.776 266.34,18.336 266.34,17.92 C266.34,16.72 266.08,15.644 265.56,14.692 C265.04,13.74 264.3,12.992 263.34,12.448 C262.38,11.904 261.276,11.632 260.028,11.632 C258.748,11.632 257.616,11.908 256.632,12.46 C255.648,13.012 254.884,13.8 254.34,14.824 C253.796,15.848 253.524,17.04 253.524,18.4 C253.524,19.76 253.804,20.956 254.364,21.988 C254.924,23.02 255.696,23.816 256.68,24.376 C257.664,24.936 258.78,25.216 260.028,25.216 Z M264.084,17.464 L255.78,17.464 C255.892,16.216 256.336,15.24 257.112,14.536 C257.888,13.832 258.828,13.48 259.932,13.48 C260.7,13.48 261.4,13.636 262.032,13.948 C262.664,14.26 263.164,14.716 263.532,15.316 C263.9,15.916 264.084,16.632 264.084,17.464 L264.084,17.464 Z M271.378667,25 L271.378667,17.848 C271.378667,15.192 272.602667,13.864 275.050667,13.864 L275.050667,13.864 L275.626667,13.864 L275.626667,11.608 C274.602667,11.608 273.734667,11.816 273.022667,12.232 C272.310667,12.648 271.762667,13.232 271.378667,13.984 L271.378667,13.984 L271.378667,11.848 L269.194667,11.848 L269.194667,25 L271.378667,25 Z" id="TimPanek,UXDesigner" fill="#033F6D" fill-rule="nonzero"></path>
    </g>
</svg>