<?xml version="1.0" encoding="UTF-8"?>
<svg width="283px" height="28px" viewBox="0 0 283 28" version="1.1" xmlns="http://www.w3.org/2000/svg" xmlns:xlink="http://www.w3.org/1999/xlink">
    <title>TimPanek,UXDesigner</title>
    <g id="Page-1" stroke="none" stroke-width="1" fill="none" fill-rule="evenodd">
        <g id="logo" transform="translate(-1.000000, -1.000000)" fill="#033F6D" fill-rule="nonzero">
            <path d="M9.40911111,22 L9.40911111,4.808 L15.1211111,4.808 L15.1211111,2.4 L1.03711111,2.4 L1.03711111,4.808 L6.74911111,4.808 L6.74911111,22 L9.40911111,22 Z M19.4875556,5.2 L19.4875556,2.4 L16.9675556,2.4 L16.9675556,5.2 L19.4875556,5.2 Z M19.4875556,22 L19.4875556,8.28 L16.9675556,8.28 L16.9675556,22 L19.4875556,22 Z M25.394,22 L25.393,12.028 L25.4173333,11.9814444 C25.6568889,11.5576852 25.9774306,11.215706 26.3789583,10.9555069 L26.556,10.849 C27.284,10.443 28.11,10.24 29.034,10.24 C29.6686667,10.24 30.2286667,10.3566667 30.714,10.59 C31.1993333,10.8233333 31.5773333,11.2433333 31.848,11.85 C32.1186667,12.4566667 32.254,13.32 32.254,14.44 L32.254,14.44 L32.254,22 L34.774,22 L34.774,14.048 C34.774,13.6653333 34.8136667,13.2546667 34.893,12.816 C34.9723333,12.3773333 35.1356667,11.962 35.383,11.57 C35.6303333,11.178 35.9966667,10.8583333 36.482,10.611 C36.9673333,10.3636667 37.6113333,10.24 38.414,10.24 C39.5526667,10.24 40.374,10.534 40.878,11.122 C41.382,11.71 41.634,12.648 41.634,13.936 L41.634,13.936 L41.634,22 L44.154,22 L44.154,13.908 C44.154,12.564 43.9556667,11.4556667 43.559,10.583 C43.1623333,9.71033333 42.572,9.06166667 41.788,8.637 C41.004,8.21233333 40.038,8 38.89,8 C37.4526667,8 36.3093333,8.308 35.46,8.924 C34.842303,9.372 34.3406171,9.93847934 33.9549421,10.623438 L33.888,10.748 L33.812321,10.5836049 C33.6399424,10.2360823 33.4477449,9.93050206 33.2357284,9.6668642 L33.073,9.477 C32.5736667,8.931 32.0136667,8.54833333 31.393,8.329 C30.7723333,8.10966667 30.126,8 29.454,8 C28.558,8 27.704,8.17966667 26.892,8.539 C26.3236,8.79053333 25.7437667,9.18041 25.1525,9.70863 L25.113,9.745 L24.834,8.28 L22.874,8.28 L22.874,22 L25.394,22 Z M57.0028889,22 L57.0028889,15.14 L60.6708889,15.14 C61.9868889,15.14 63.1442222,14.9206667 64.1428889,14.482 C65.1415556,14.0433333 65.9185556,13.355 66.4738889,12.417 C67.0292222,11.479 67.3068889,10.2586667 67.3068889,8.756 C67.3068889,7.22533333 67.0292222,5.99333333 66.4738889,5.06 C65.9185556,4.12666667 65.1415556,3.45 64.1428889,3.03 C63.1442222,2.61 61.9868889,2.4 60.6708889,2.4 L60.6708889,2.4 L54.2028889,2.4 L54.2028889,22 L57.0028889,22 Z M60.2788889,12.76 L57.0028889,12.76 L57.0028889,4.78 L60.2788889,4.78 C61.7815556,4.78 62.8712222,5.10666667 63.5478889,5.76 C64.2245556,6.41333333 64.5628889,7.42133333 64.5628889,8.784 C64.5628889,10.1373333 64.2058889,11.1383333 63.4918889,11.787 C62.7778889,12.4356667 61.7068889,12.76 60.2788889,12.76 L60.2788889,12.76 Z M80.3813333,22.28 L80.7733333,20.264 L80.5213333,20.264 C80.036,20.264 79.6836667,20.159 79.4643333,19.949 C79.245,19.739 79.105,19.4216667 79.0443333,18.997 C78.9836667,18.5723333 78.9533333,18.0333333 78.9533333,17.38 L78.9533333,17.38 L78.9533333,14.58 C78.9533333,12.928 78.79,11.6213333 78.4633333,10.66 C78.1366667,9.69866667 77.6186667,9.015 76.9093333,8.609 C76.2,8.203 75.2666667,8 74.1093333,8 C73.204,8 72.3406667,8.133 71.5193333,8.399 C70.698,8.665 70.012,9.008 69.4613333,9.428 L69.4613333,9.428 L69.8253333,11.472 C70.5533333,10.968 71.209,10.6366667 71.7923333,10.478 C72.3756667,10.3193333 72.924,10.24 73.4373333,10.24 C74.408,10.24 75.15,10.4406667 75.6633333,10.842 C76.1766667,11.2433333 76.4333333,12.0973333 76.4333333,13.404 C75.7333333,13.4133333 75.003,13.467 74.2423333,13.565 C73.4816667,13.663 72.7466667,13.8216667 72.0373333,14.041 C71.328,14.2603333 70.6863333,14.5543333 70.1123333,14.923 C69.5383333,15.2916667 69.081,15.7536667 68.7403333,16.309 C68.3996667,16.8643333 68.2293333,17.5293333 68.2293333,18.304 C68.2293333,19.0693333 68.4043333,19.7506667 68.7543333,20.348 C69.1043333,20.9453333 69.5966667,21.4166667 70.2313333,21.762 C70.866,22.1073333 71.608,22.28 72.4573333,22.28 C73.344,22.28 74.1373333,22.0933333 74.8373333,21.72 C75.5373333,21.3466667 76.144,20.8613333 76.6573333,20.264 C76.844,20.6933333 77.054,21.0573333 77.2873333,21.356 C77.5206667,21.6546667 77.859,21.8833333 78.3023333,22.042 C78.7456667,22.2006667 79.3733333,22.28 80.1853333,22.28 L80.1853333,22.28 L80.3813333,22.28 Z M72.9333333,20.264 C72.308,20.264 71.797,20.0983333 71.4003333,19.767 C71.0036667,19.4356667 70.8053333,18.9013333 70.8053333,18.164 C70.8053333,17.4826667 70.9966667,16.9273333 71.3793333,16.498 C71.762,16.0686667 72.3663333,15.7466667 73.1923333,15.532 C74.0183333,15.3173333 75.0986667,15.1866667 76.4333333,15.14 L76.4333333,15.14 L76.4333333,18.416 C76.032,18.976 75.5163333,19.424 74.8863333,19.76 C74.2563333,20.096 73.6053333,20.264 72.9333333,20.264 Z M85.1957778,22 L85.195,12.025 L85.2183333,11.9814444 C85.4624259,11.5576852 85.7962384,11.215706 86.2197708,10.9555069 L86.4067778,10.849 C87.1767778,10.443 88.0237778,10.24 88.9477778,10.24 C90.2544444,10.24 91.1784444,10.576 91.7197778,11.248 C92.2611111,11.92 92.5317778,12.984 92.5317778,14.44 L92.5317778,14.44 L92.5317778,22 L95.0517778,22 L95.0517778,14.44 C95.0517778,12.4613333 94.6201111,10.8933333 93.7567778,9.736 C92.8934444,8.57866667 91.4584444,8 89.4517778,8 C88.6117778,8 87.7507778,8.15866667 86.8687778,8.476 C86.2807778,8.68755556 85.6834444,9.05674074 85.0767778,9.58355556 L84.913,9.731 L84.6357778,8.28 L82.6757778,8.28 L82.6757778,22 L85.1957778,22 Z M104.878222,22.28 C105.876889,22.28 106.758889,22.161 107.524222,21.923 C108.289556,21.685 108.938222,21.4493333 109.470222,21.216 L109.470222,21.216 L109.134222,19.228 C108.518222,19.508 107.864889,19.7133333 107.174222,19.844 C106.483556,19.9746667 105.820889,20.04 105.186222,20.04 C104.318222,20.04 103.515556,19.8953333 102.778222,19.606 C102.040889,19.3166667 101.429556,18.8173333 100.944222,18.108 C100.458889,17.3986667 100.155556,16.4093333 100.034222,15.14 L100.034222,15.14 L109.974222,15.14 C110.020889,14.8973333 110.051222,14.6616667 110.065222,14.433 C110.079222,14.2043333 110.086222,13.992 110.086222,13.796 C110.086222,12.564 109.831889,11.5163333 109.323222,10.653 C108.814556,9.78966667 108.114556,9.13166667 107.223222,8.679 C106.331889,8.22633333 105.316889,8 104.178222,8 C102.759556,8 101.548556,8.31966667 100.545222,8.959 C99.5418889,9.59833333 98.7765556,10.45 98.2492222,11.514 C97.7218889,12.578 97.4582222,13.7493333 97.4582222,15.028 C97.4582222,16.344 97.7405556,17.5503333 98.3052222,18.647 C98.8698889,19.7436667 99.7028889,20.6233333 100.804222,21.286 C101.905556,21.9486667 103.263556,22.28 104.878222,22.28 Z M107.482222,13.404 L100.258222,13.404 C100.510222,12.4053333 100.937222,11.6283333 101.539222,11.073 C102.141222,10.5176667 103.002222,10.24 104.122222,10.24 C104.887556,10.24 105.517556,10.3683333 106.012222,10.625 C106.506889,10.8816667 106.875556,11.248 107.118222,11.724 C107.360889,12.2 107.482222,12.76 107.482222,13.404 L107.482222,13.404 Z M115.096667,22 L115.096667,15.028 L120.276667,22 L123.356667,22 L117.756667,14.664 L123.216667,8.28 L120.136667,8.28 L115.096667,14.468 L115.096667,1 L112.576667,1 L112.576667,22 L115.096667,22 Z M126.603111,24.996 L128.059111,21.72 L128.059111,19.032 L125.035111,19.032 L125.035111,22 L126.015111,22 L125.007111,24.996 L126.603111,24.996 Z M145.836,22.392 C147.674667,22.392 149.193667,22.0396667 150.393,21.335 C151.592333,20.6303333 152.486,19.627 153.074,18.325 C153.662,17.023 153.956,15.476 153.956,13.684 L153.956,13.684 L153.956,2.4 L151.296,2.4 L151.296,12.956 C151.296,13.8426667 151.226,14.706 151.086,15.546 C150.946,16.386 150.687,17.1396667 150.309,17.807 C149.931,18.4743333 149.382667,19.004 148.664,19.396 C147.945333,19.788 147.002667,19.984 145.836,19.984 C144.678667,19.984 143.738333,19.788 143.015,19.396 C142.291667,19.004 141.741,18.4766667 141.363,17.814 C140.985,17.1513333 140.726,16.4 140.586,15.56 C140.446,14.72 140.376,13.852 140.376,12.956 L140.376,12.956 L140.376,2.4 L137.716,2.4 L137.716,13.684 C137.716,15.476 138.01,17.023 138.598,18.325 C139.186,19.627 140.079667,20.6303333 141.279,21.335 C142.478333,22.0396667 143.997333,22.392 145.836,22.392 Z M159.134444,22 L164.258444,14.412 L169.354444,22 L172.434444,22 L165.798444,12.116 L172.322444,2.4 L169.242444,2.4 L164.258444,9.82 L159.246444,2.4 L156.166444,2.4 L162.718444,12.116 L156.054444,22 L159.134444,22 Z M188.279333,22 C190.174,22 191.854,21.6126667 193.319333,20.838 C194.784667,20.0633333 195.935,18.9456667 196.770333,17.485 C197.605667,16.0243333 198.023333,14.2626667 198.023333,12.2 C198.023333,10.1373333 197.605667,8.37566667 196.770333,6.915 C195.935,5.45433333 194.784667,4.33666667 193.319333,3.562 C191.854,2.78733333 190.174,2.4 188.279333,2.4 L188.279333,2.4 L181.027333,2.4 L181.027333,22 L188.279333,22 Z M188.279333,19.592 L183.687333,19.592 L183.687333,4.808 L188.279333,4.808 C189.772667,4.808 191.025667,5.11833333 192.038333,5.739 C193.051,6.35966667 193.816333,7.22533333 194.334333,8.336 C194.852333,9.44666667 195.111333,10.7346667 195.111333,12.2 C195.111333,13.6653333 194.852333,14.9533333 194.334333,16.064 C193.816333,17.1746667 193.051,18.0403333 192.038333,18.661 C191.025667,19.2816667 189.772667,19.592 188.279333,19.592 L188.279333,19.592 Z M207.233778,22.28 C208.232444,22.28 209.114444,22.161 209.879778,21.923 C210.645111,21.685 211.293778,21.4493333 211.825778,21.216 L211.825778,21.216 L211.489778,19.228 C210.873778,19.508 210.220444,19.7133333 209.529778,19.844 C208.839111,19.9746667 208.176444,20.04 207.541778,20.04 C206.673778,20.04 205.871111,19.8953333 205.133778,19.606 C204.396444,19.3166667 203.785111,18.8173333 203.299778,18.108 C202.814444,17.3986667 202.511111,16.4093333 202.389778,15.14 L202.389778,15.14 L212.329778,15.14 C212.376444,14.8973333 212.406778,14.6616667 212.420778,14.433 C212.434778,14.2043333 212.441778,13.992 212.441778,13.796 C212.441778,12.564 212.187444,11.5163333 211.678778,10.653 C211.170111,9.78966667 210.470111,9.13166667 209.578778,8.679 C208.687444,8.22633333 207.672444,8 206.533778,8 C205.115111,8 203.904111,8.31966667 202.900778,8.959 C201.897444,9.59833333 201.132111,10.45 200.604778,11.514 C200.077444,12.578 199.813778,13.7493333 199.813778,15.028 C199.813778,16.344 200.096111,17.5503333 200.660778,18.647 C201.225444,19.7436667 202.058444,20.6233333 203.159778,21.286 C204.261111,21.9486667 205.619111,22.28 207.233778,22.28 Z M209.837778,13.404 L202.613778,13.404 C202.865778,12.4053333 203.292778,11.6283333 203.894778,11.073 C204.496778,10.5176667 205.357778,10.24 206.477778,10.24 C207.243111,10.24 207.873111,10.3683333 208.367778,10.625 C208.862444,10.8816667 209.231111,11.248 209.473778,11.724 C209.716444,12.2 209.837778,12.76 209.837778,13.404 L209.837778,13.404 Z M218.852222,22.28 C220.252222,22.28 221.330222,22.0653333 222.086222,21.636 C222.842222,21.2066667 223.364889,20.677 223.654222,20.047 C223.943556,19.417 224.088222,18.7986667 224.088222,18.192 C224.088222,17.4733333 223.950556,16.8736667 223.675222,16.393 C223.399889,15.9123333 223.052222,15.5226667 222.632222,15.224 C222.212222,14.9253333 221.780556,14.6873333 221.337222,14.51 C220.893889,14.3326667 220.504222,14.1973333 220.168222,14.104 C219.094889,13.7773333 218.294556,13.4786667 217.767222,13.208 C217.239889,12.9373333 216.976222,12.48 216.976222,11.836 C216.976222,11.192 217.223556,10.723 217.718222,10.429 C218.212889,10.135 218.852222,9.988 219.636222,9.988 C220.410889,9.988 221.064222,10.1046667 221.596222,10.338 C222.128222,10.5713333 222.594889,10.856 222.996222,11.192 L222.996222,11.192 L223.304222,8.896 C222.884222,8.68133333 222.387222,8.47833333 221.813222,8.287 C221.239222,8.09566667 220.494889,8 219.580222,8 C218.329556,8 217.326222,8.196 216.570222,8.588 C215.814222,8.98 215.268222,9.491 214.932222,10.121 C214.596222,10.751 214.428222,11.416 214.428222,12.116 C214.428222,13.04 214.656889,13.7586667 215.114222,14.272 C215.571556,14.7853333 216.133889,15.1703333 216.801222,15.427 C217.468556,15.6836667 218.114889,15.896 218.740222,16.064 C219.113556,16.1666667 219.512556,16.3043333 219.937222,16.477 C220.361889,16.6496667 220.725889,16.883 221.029222,17.177 C221.332556,17.471 221.484222,17.856 221.484222,18.332 C221.484222,18.8733333 221.248556,19.2933333 220.777222,19.592 C220.305889,19.8906667 219.626889,20.04 218.740222,20.04 C217.694889,20.04 216.794222,19.872 216.038222,19.536 C215.282222,19.2 214.754889,18.9013333 214.456222,18.64 L214.456222,18.64 L214.148222,21.076 C214.474889,21.3 215.037222,21.5566667 215.835222,21.846 C216.633222,22.1353333 217.638889,22.28 218.852222,22.28 Z M229.042667,5.2 L229.042667,2.4 L226.522667,2.4 L226.522667,5.2 L229.042667,5.2 Z M229.042667,22 L229.042667,8.28 L226.522667,8.28 L226.522667,22 L229.042667,22 Z M237.973111,29 C239.345111,29 240.539778,28.8436667 241.557111,28.531 C242.574444,28.2183333 243.360778,27.747 243.916111,27.117 C244.471444,26.487 244.749111,25.696 244.749111,24.744 C244.749111,23.596 244.345444,22.7093333 243.538111,22.084 C242.730778,21.4586667 241.585111,21.0293333 240.101111,20.796 L240.101111,20.796 L236.433111,20.208 C235.891778,20.124 235.499778,20.005 235.257111,19.851 C235.014444,19.697 234.893111,19.5173333 234.893111,19.312 C234.893111,18.9666667 235.107778,18.724 235.537111,18.584 C235.817111,18.668 236.111111,18.731 236.419111,18.773 C236.727111,18.815 237.049111,18.836 237.385111,18.836 C238.570444,18.836 239.587778,18.5956667 240.437111,18.115 C241.286444,17.6343333 241.937444,16.981 242.390111,16.155 C242.842778,15.329 243.069111,14.3933333 243.069111,13.348 C243.069111,12.7413333 242.964111,12.1603333 242.754111,11.605 C242.544111,11.0496667 242.247778,10.548 241.865111,10.1 C242.145111,10.0253333 242.453111,9.974 242.789111,9.946 C243.125111,9.918 243.339778,9.904 243.433111,9.904 L243.433111,9.904 L244.077111,9.904 L244.385111,8.224 L244.385111,8.224 L244.161111,8.224 C243.451778,8.224 242.810111,8.30333333 242.236111,8.462 C241.662111,8.62066667 241.165111,8.82133333 240.745111,9.064 C240.269111,8.728 239.748778,8.46666667 239.184111,8.28 C238.619444,8.09333333 238.019778,8 237.385111,8 C236.199778,8 235.184778,8.238 234.340111,8.714 C233.495444,9.19 232.849111,9.83166667 232.401111,10.639 C231.953111,11.4463333 231.729111,12.3493333 231.729111,13.348 C231.729111,14.3373333 231.934444,15.2356667 232.345111,16.043 C232.755778,16.8503333 233.343778,17.492 234.109111,17.968 C233.539778,18.192 233.126778,18.4743333 232.870111,18.815 C232.613444,19.1556667 232.485111,19.536 232.485111,19.956 C232.485111,20.3106667 232.599444,20.635 232.828111,20.929 C233.056778,21.223 233.390444,21.4773333 233.829111,21.692 C233.091778,22.0186667 232.510778,22.4503333 232.086111,22.987 C231.661444,23.5236667 231.449111,24.1653333 231.449111,24.912 C231.449111,25.808 231.731444,26.5593333 232.296111,27.166 C232.860778,27.7726667 233.635444,28.23 234.620111,28.538 C235.604778,28.846 236.722444,29 237.973111,29 Z M237.385111,16.82 C236.321111,16.82 235.513778,16.5003333 234.963111,15.861 C234.412444,15.2216667 234.137111,14.3933333 234.137111,13.376 C234.137111,12.396 234.412444,11.591 234.963111,10.961 C235.513778,10.331 236.321111,10.016 237.385111,10.016 C238.449111,10.016 239.261111,10.331 239.821111,10.961 C240.381111,11.591 240.661111,12.396 240.661111,13.376 C240.661111,14.3933333 240.381111,15.2216667 239.821111,15.861 C239.261111,16.5003333 238.449111,16.82 237.385111,16.82 Z M238.197111,26.76 C236.881111,26.76 235.828778,26.5826667 235.040111,26.228 C234.251444,25.8733333 233.857111,25.304 233.857111,24.52 C233.857111,24.016 234.048444,23.575 234.431111,23.197 C234.813778,22.819 235.261778,22.518 235.775111,22.294 L235.775111,22.294 L239.681111,22.952 C240.493111,23.1013333 241.116111,23.3206667 241.550111,23.61 C241.984111,23.8993333 242.201111,24.296 242.201111,24.8 C242.201111,25.444 241.855778,25.9316667 241.165111,26.263 C240.474444,26.5943333 239.485111,26.76 238.197111,26.76 Z M248.863556,22 L248.863,12.025 L248.886111,11.9814444 C249.130204,11.5576852 249.464016,11.215706 249.887549,10.9555069 L250.074556,10.849 C250.844556,10.443 251.691556,10.24 252.615556,10.24 C253.922222,10.24 254.846222,10.576 255.387556,11.248 C255.928889,11.92 256.199556,12.984 256.199556,14.44 L256.199556,14.44 L256.199556,22 L258.719556,22 L258.719556,14.44 C258.719556,12.4613333 258.287889,10.8933333 257.424556,9.736 C256.561222,8.57866667 255.126222,8 253.119556,8 C252.279556,8 251.418556,8.15866667 250.536556,8.476 C249.948556,8.68755556 249.351222,9.05674074 248.744556,9.58355556 L248.581,9.731 L248.303556,8.28 L246.343556,8.28 L246.343556,22 L248.863556,22 Z M268.546,22.28 C269.544667,22.28 270.426667,22.161 271.192,21.923 C271.957333,21.685 272.606,21.4493333 273.138,21.216 L273.138,21.216 L272.802,19.228 C272.186,19.508 271.532667,19.7133333 270.842,19.844 C270.151333,19.9746667 269.488667,20.04 268.854,20.04 C267.986,20.04 267.183333,19.8953333 266.446,19.606 C265.708667,19.3166667 265.097333,18.8173333 264.612,18.108 C264.126667,17.3986667 263.823333,16.4093333 263.702,15.14 L263.702,15.14 L273.642,15.14 C273.688667,14.8973333 273.719,14.6616667 273.733,14.433 C273.747,14.2043333 273.754,13.992 273.754,13.796 C273.754,12.564 273.499667,11.5163333 272.991,10.653 C272.482333,9.78966667 271.782333,9.13166667 270.891,8.679 C269.999667,8.22633333 268.984667,8 267.846,8 C266.427333,8 265.216333,8.31966667 264.213,8.959 C263.209667,9.59833333 262.444333,10.45 261.917,11.514 C261.389667,12.578 261.126,13.7493333 261.126,15.028 C261.126,16.344 261.408333,17.5503333 261.973,18.647 C262.537667,19.7436667 263.370667,20.6233333 264.472,21.286 C265.573333,21.9486667 266.931333,22.28 268.546,22.28 Z M271.15,13.404 L263.926,13.404 C264.178,12.4053333 264.605,11.6283333 265.207,11.073 C265.809,10.5176667 266.67,10.24 267.79,10.24 C268.555333,10.24 269.185333,10.3683333 269.68,10.625 C270.174667,10.8816667 270.543333,11.248 270.786,11.724 C271.028667,12.2 271.15,12.76 271.15,13.404 L271.15,13.404 Z M278.960444,22 L278.960444,12.312 C279.212444,11.9293333 279.644111,11.577 280.255444,11.255 C280.866778,10.933 281.536444,10.772 282.264444,10.772 C282.432444,10.772 282.584111,10.779 282.719444,10.793 C282.854778,10.807 282.983111,10.828 283.104444,10.856 L283.104444,10.856 L283.356444,8.084 C283.160444,8.028 282.945778,8 282.712444,8 C281.984444,8 281.300778,8.20766667 280.661444,8.623 C280.022111,9.03833333 279.352444,9.68 278.652444,10.548 L278.652444,10.548 L278.344444,8.28 L276.272444,8.28 L276.272444,22 L278.960444,22 Z" id="TimPanek,UXDesigner"></path>
        </g>
    </g>
</svg>